<svg xmlns="http://www.w3.org/2000/svg" viewBox="0 0 247 52" width="247" height="52" role="img" aria-label="Evidentia">
  <title>Evidentia</title>
  <path d="M32 42L5.89 42L5.89 2L32 2L32 9.06L13.44 9.06L13.44 17.61L28.67 17.61L28.67 24.67L13.44 24.67L13.44 34.94L32 34.94L32 42M52.67 42L45.11 42L34.22 12L41.78 12L48.89 32.78L56 12L63.56 12L52.67 42M75 7.83L67.44 7.83L67.44 1.17L75 1.17L75 7.83M75 42L67.44 42L67.44 12L75 12L75 42M93.83 42.83L93.83 42.83Q89.69 42.83 86.58 40.75Q83.47 38.67 81.74 35.08Q80 31.5 80 27L80 27Q80 22.42 81.76 18.85Q83.53 15.28 86.72 13.22Q89.92 11.17 94.22 11.17L94.22 11.17Q98.5 11.17 101.42 13.25Q104.33 15.33 105.83 18.92Q107.33 22.5 107.33 27L107.33 27Q107.33 31.5 105.82 35.08Q104.31 38.67 101.31 40.75Q98.31 42.83 93.83 42.83M95.06 36.11L95.06 36.11Q97.58 36.11 99.1 34.97Q100.61 33.83 101.28 31.78Q101.94 29.72 101.94 27L101.94 27Q101.94 24.28 101.28 22.22Q100.61 20.17 99.15 19.03Q97.69 17.89 95.33 17.89L95.33 17.89Q92.81 17.89 91.18 19.13Q89.56 20.36 88.78 22.43Q88 24.5 88 27L88 27Q88 29.53 88.75 31.6Q89.5 33.67 91.06 34.89Q92.61 36.11 95.06 36.11M108.61 42L101.94 42L101.94 21.44L101 21.44L101 2L108.61 2L108.61 42M128.67 42.83L128.67 42.83Q124.06 42.83 120.54 40.85Q117.03 38.86 115.04 35.38Q113.06 31.89 113.06 27.39L113.06 27.39Q113.06 22.47 115 18.83Q116.94 15.19 120.36 13.18Q123.78 11.17 128.22 11.17L128.22 11.17Q132.94 11.17 136.25 13.39Q139.56 15.61 141.14 19.64Q142.72 23.67 142.25 29.11L142.25 29.11L134.78 29.11L134.78 26.33Q134.78 21.75 133.32 19.74Q131.86 17.72 128.56 17.72L128.56 17.72Q124.69 17.72 122.88 20.07Q121.06 22.42 121.06 27L121.06 27Q121.06 31.19 122.88 33.49Q124.69 35.78 128.22 35.78L128.22 35.78Q130.44 35.78 132.03 34.81Q133.61 33.83 134.44 32L134.44 32L142 34.17Q140.31 38.28 136.65 40.56Q133 42.83 128.67 42.83M138.61 29.11L118.72 29.11L118.72 23.5L138.61 23.5L138.61 29.11M174.11 42L166.44 42L166.44 27.83Q166.44 26.81 166.33 25.21Q166.22 23.61 165.64 22Q165.06 20.39 163.74 19.31Q162.42 18.22 160 18.22L160 18.22Q159.03 18.22 157.92 18.53Q156.81 18.83 155.83 19.71Q154.86 20.58 154.24 22.28Q153.61 23.97 153.61 26.78L153.61 26.78L149.28 24.72Q149.28 21.17 150.72 18.06Q152.17 14.94 155.07 13.03Q157.97 11.11 162.39 11.11L162.39 11.11Q165.92 11.11 168.14 12.31Q170.36 13.5 171.6 15.33Q172.83 17.17 173.36 19.15Q173.89 21.14 174 22.78Q174.11 24.42 174.11 25.17L174.11 25.17L174.11 42M153.61 42L145.94 42L145.94 12L152.67 12L152.67 21.94L153.61 21.94L153.61 42M197.67 35.72L197.67 42Q194.56 42.58 191.57 42.51Q188.58 42.44 186.24 41.46Q183.89 40.47 182.67 38.28L182.67 38.28Q181.56 36.22 181.5 34.1Q181.44 31.97 181.44 29.28L181.44 29.28L181.44 3.67L189 3.67L189 28.83Q189 30.58 189.04 31.99Q189.08 33.39 189.61 34.22L189.61 34.22Q190.61 35.81 192.81 35.94Q195 36.08 197.67 35.72L197.67 35.72M197.67 17.83L176.33 17.83L176.33 12L197.67 12L197.67 17.83M210.78 7.83L203.22 7.83L203.22 1.17L210.78 1.17L210.78 7.83M210.78 42L203.22 42L203.22 12L210.78 12L210.78 42M225.78 42.83L225.78 42.83Q222.56 42.83 220.32 41.6Q218.08 40.36 216.93 38.29Q215.78 36.22 215.78 33.72L215.78 33.72Q215.78 31.64 216.42 29.92Q217.06 28.19 218.49 26.88Q219.92 25.56 222.33 24.67L222.33 24.67Q224 24.06 226.31 23.58Q228.61 23.11 231.53 22.68Q234.44 22.25 237.94 21.72L237.94 21.72L235.22 23.22Q235.22 20.56 233.94 19.31Q232.67 18.06 229.67 18.06L229.67 18.06Q228 18.06 226.19 18.86Q224.39 19.67 223.67 21.72L223.67 21.72L216.83 19.56Q217.97 15.83 221.11 13.5Q224.25 11.17 229.67 11.17L229.67 11.17Q233.64 11.17 236.72 12.39Q239.81 13.61 241.39 16.61L241.39 16.61Q242.28 18.28 242.44 19.94Q242.61 21.61 242.61 23.67L242.61 23.67L242.61 42L236 42L236 35.83L236.94 37.11Q234.75 40.14 232.21 41.49Q229.67 42.83 225.78 42.83M227.39 36.89L227.39 36.89Q229.47 36.89 230.9 36.15Q232.33 35.42 233.18 34.47Q234.03 33.53 234.33 32.89L234.33 32.89Q234.92 31.67 235.01 30.04Q235.11 28.42 235.11 27.33L235.11 27.33L237.33 27.89Q233.97 28.44 231.89 28.82Q229.81 29.19 228.53 29.5Q227.25 29.81 226.28 30.17L226.28 30.17Q225.17 30.61 224.49 31.13Q223.81 31.64 223.49 32.25Q223.17 32.86 223.17 33.61L223.17 33.61Q223.17 34.64 223.68 35.38Q224.19 36.11 225.14 36.5Q226.08 36.89 227.39 36.89" fill="#ffffff"/>
</svg>
